<?xml version="1.0" encoding="utf-8"?>
<!-- Generator: Adobe Illustrator 16.0.0, SVG Export Plug-In . SVG Version: 6.00 Build 0)  -->
<!DOCTYPE svg PUBLIC "-//W3C//DTD SVG 1.1//EN" "http://www.w3.org/Graphics/SVG/1.1/DTD/svg11.dtd">
<svg version="1.1" id="Layer_1" xmlns="http://www.w3.org/2000/svg" xmlns:xlink="http://www.w3.org/1999/xlink" x="0px" y="0px"
	 width="163px" height="90px" viewBox="0 0 163 90" enable-background="new 0 0 163 90" xml:space="preserve">
<g>
	<path fill-rule="evenodd" clip-rule="evenodd" fill="#FFFFFF" d="M12.932,78.321l-0.49-0.204c-0.543-0.234-0.684-0.438-0.684-0.984
		c0-0.677,0.354-1.081,0.945-1.081c0.293,0,0.535,0.092,0.7,0.267c0.178,0.186,0.264,0.453,0.248,0.772l-0.006,0.159h0.838
		l0.002-0.147c0.015-0.532-0.157-1.007-0.48-1.34c-0.323-0.331-0.768-0.505-1.292-0.505c-1.098,0-1.809,0.748-1.809,1.907
		c0,1.166,0.775,1.57,1.566,1.886c0.077,0.029,0.152,0.059,0.226,0.086c0.641,0.243,1.107,0.417,1.107,1.176
		c0,0.698-0.434,1.133-1.133,1.133c-0.305,0-0.547-0.088-0.721-0.266c-0.278-0.281-0.331-0.724-0.328-1.045l0.003-0.15h-0.845
		l-0.003,0.146c-0.016,0.658,0.173,1.207,0.541,1.587c0.334,0.342,0.805,0.521,1.362,0.521c1.201,0,1.978-0.763,1.978-1.942
		C14.656,79.039,13.858,78.707,12.932,78.321z"/>
	<polygon fill-rule="evenodd" clip-rule="evenodd" fill="#FFFFFF" points="24.397,78.991 26.522,78.991 26.522,78.196 
		24.397,78.196 24.397,76.204 26.734,76.204 26.734,75.409 23.543,75.409 23.543,82.085 26.778,82.085 26.778,81.292 24.397,81.292 
			"/>
	<polygon fill-rule="evenodd" clip-rule="evenodd" fill="#FFFFFF" points="36.456,78.991 38.584,78.991 38.584,78.196 
		36.456,78.196 36.456,76.204 38.794,76.204 38.794,75.409 35.605,75.409 35.605,82.085 38.838,82.085 38.838,81.292 36.456,81.292 
			"/>
	<path fill-rule="evenodd" clip-rule="evenodd" fill="#FFFFFF" d="M50.996,76.065c-0.557-0.606-1.265-0.656-1.999-0.656h-1.289
		v6.676h1.398c1.103,0,1.869-0.234,2.283-1.396c0.259-0.676,0.258-1.578,0.257-2.305v-0.12
		C51.647,77.579,51.444,76.602,50.996,76.065z M48.56,76.204h0.334c0.111-0.005,0.231-0.011,0.357-0.011
		c0.365,0,0.625,0.045,0.795,0.139c0.748,0.406,0.747,1.584,0.747,2.362v0.046c0,0.563,0,2.058-0.806,2.431
		c-0.259,0.121-0.606,0.121-0.916,0.121H48.56V76.204z"/>
	<path fill-rule="evenodd" clip-rule="evenodd" fill="#FFFFFF" d="M73.916,79.628l-0.004,0.144
		c-0.026,0.763-0.226,1.674-1.039,1.674c-0.287,0-0.514-0.088-0.693-0.267c-0.513-0.515-0.512-1.684-0.511-2.381v-0.189
		c-0.001-0.631-0.002-1.801,0.502-2.308c0.168-0.168,0.376-0.249,0.64-0.249c0.635,0,0.989,0.455,1.05,1.353l0.009,0.142h0.843
		v-0.152c-0.012-1.298-0.75-2.136-1.884-2.136c-2.012,0-2.012,2.405-2.012,3.312c0,1.371,0,3.669,1.993,3.669
		c0.503,0,0.944-0.182,1.281-0.524c0.439-0.449,0.69-1.176,0.674-1.94l-0.005-0.146H73.916z"/>
	<path fill-rule="evenodd" clip-rule="evenodd" fill="#FFFFFF" d="M85.809,75.258c-2.021,0-2.021,2.491-2.021,3.312
		c0,1.371,0,3.669,2.003,3.669c2.046,0,2.046-2.183,2.046-3.354C87.837,77.528,87.837,75.258,85.809,75.258z M85.841,81.445
		c-0.285,0-0.512-0.088-0.689-0.266c-0.514-0.516-0.513-1.685-0.513-2.384v-0.097c0-1.311,0.137-2.647,1.144-2.647
		c0.516,0,0.855,0.313,1.039,0.957c0.164,0.572,0.164,1.268,0.164,1.748v0.094c0.001,0.688,0.003,1.839-0.504,2.346
		C86.313,81.363,86.105,81.445,85.841,81.445z"/>
	<polygon fill-rule="evenodd" clip-rule="evenodd" fill="#FFFFFF" points="99.527,80.584 98.12,75.409 96.927,75.409 96.927,82.085 
		97.779,82.085 97.779,77.162 99.131,82.085 99.946,82.085 101.279,77.177 101.279,82.085 102.133,82.085 102.133,75.409 
		100.967,75.409 	"/>
	<path fill-rule="evenodd" clip-rule="evenodd" fill="#FFFFFF" d="M112.66,75.409h-1.283v6.676h0.854v-2.88h0.69
		c0.236,0,1.008-0.088,1.463-0.478c0.391-0.319,0.572-0.797,0.572-1.502C114.957,75.718,114.037,75.409,112.66,75.409z
		 M114.105,77.277c0,0.96-0.524,1.132-1.549,1.132h-0.325v-2.205h0.654C113.797,76.223,114.105,76.492,114.105,77.277z"/>
	<path fill-rule="evenodd" clip-rule="evenodd" fill="#FFFFFF" d="M125.115,75.409l-1.788,6.676h0.845l0.52-1.964h1.706l0.5,1.964
		h0.876l-1.789-6.676H125.115z M124.889,79.329l0.656-2.511l0.656,2.511H124.889z"/>
	<polygon fill-rule="evenodd" clip-rule="evenodd" fill="#FFFFFF" points="139.419,80.341 137.306,75.409 136.369,75.409 
		136.369,82.085 137.222,82.085 137.222,77.163 139.352,82.085 140.273,82.085 140.273,75.409 139.419,75.409 	"/>
	<polygon fill-rule="evenodd" clip-rule="evenodd" fill="#FFFFFF" points="152.394,75.409 151.09,78.23 149.842,75.409 
		148.896,75.409 150.662,79.254 150.662,82.085 151.517,82.085 151.517,79.254 153.303,75.409 	"/>
</g>
<path fill="#DAE58B" d="M98.26,46.023"/>
<path fill-rule="evenodd" clip-rule="evenodd" fill="#B2BB1E" d="M105.1,4C81.325,6.218,59.364,17.299,55.333,48.124
	c26.999,2.819,55.204-9.671,60.04-39.892c-15.658,2.325-32.035,12.692-41.303,25.79c13.079-9.475,23.49-15.386,31.634-16.926
	c-5.24,17.328-20.955,27.201-45.535,28.006C62.585,20.521,83.743,11.253,105.1,4z"/>
<path fill-rule="evenodd" clip-rule="evenodd" fill="#4B721D" d="M153.28,71.784V34.306h-51.292
	c-11.825,11.213-29.486,15.61-46.655,13.818c0.67-5.139,1.841-9.728,3.434-13.818H10.732v37.462L153.28,71.784z"/>
<g>
	<rect x="108.385" y="45.423" fill="#FFFFFF" width="5.027" height="4.563"/>
	<path fill="#FFFFFF" d="M27.471,71.772c-2.873-2.514-2.92-8.723-2.92-11.854c0-3.981-0.23-12.95,6.184-12.95
		c3.751,0,4.949,3.247,5.374,6.381h2.395c0-4.68-3.013-8.623-7.845-8.623c-8.194,0-8.621,8.427-8.621,14.613
		c0,3.71,0.047,9.02,2.132,12.433H27.471z M38.93,71.774V60.037h-8.736v2.239h6.224c-0.115,3.092-0.298,7.479-2.67,9.496
		L38.93,71.774z M45.391,71.774V60.424c0-3.365,1.546-5.606,5.026-5.529v-2.357c-2.475-0.039-3.944,0.773-5.064,3.013h-0.078v-2.472
		h-2.126v18.696H45.391z M54.971,71.774c-1.629-2.033-1.42-6.129-1.42-8.143h10.014v-2.165c0-4.063-1.163-8.93-6.111-8.93
		c-5.874,0-6.146,6.997-6.146,11.286c0,2.455,0.083,5.623,1.184,7.951H54.971z M62.651,71.777c0.581-1.249,0.835-2.761,0.835-4.318
		h-2.164c-0.117,1.529-0.303,3.217-1.119,4.318H62.651z M69.897,71.777c-1.628-2.035-1.421-6.132-1.421-8.146h10.013v-2.165
		c0-4.063-1.161-8.93-6.108-8.93c-5.877,0-6.146,6.997-6.146,11.286c0,2.455,0.085,5.623,1.183,7.954H69.897z M77.575,71.777
		c0.584-1.248,0.835-2.761,0.835-4.318h-2.165c-0.113,1.531-0.3,3.217-1.118,4.318H77.575z M103.937,71.784V45.423h-5.022v26.36
		L103.937,71.784z M113.412,71.784V52.615h-5.027v19.169H113.412z M122.771,71.784V56.286h2.167v-3.671h-2.167v-2.553
		c0-0.504,0.308-0.848,1.044-0.848c0.309,0,0.733,0.109,1.123,0.229v-4.021h-1.898c-3.671,0-5.294,1.083-5.294,5.024v2.168h-1.935
		v3.671h1.935v15.498H122.771z M140.679,71.784c0.629-1.271,0.879-2.881,0.807-4.752h-5.028c0.079,2.746-0.462,4.098-2.317,4.098
		c-1.507,0-2.593-0.542-2.629-3.399v-3.173h10.05v-2.936c0-5.953-0.732-9.591-7.731-9.591c-4.948,0-7.574,2.941-7.344,8.08v5.722
		c-0.045,2.539,0.296,4.504,1.084,5.951H140.679z M72.341,54.507c3.636,0,3.904,4.447,3.904,7.153h-7.769
		C68.476,59.147,68.863,54.507,72.341,54.507z M57.417,54.507c3.633,0,3.905,4.447,3.905,7.153h-7.771
		C53.551,59.147,53.935,54.507,57.417,54.507z M93.299,71.78V57.484c0-3.093-2.242-4.947-4.986-4.947
		c-2.088,0-3.749,1.043-4.833,2.626h-0.074v-2.085h-2.243V71.78h2.243V58.684c0-2.397,2.278-4.177,4.521-4.177
		c2.937,0,3.131,1.972,3.131,4.408V71.78H93.299z M133.907,55.9c2.011,0,2.592,0.693,2.629,2.897v1.894h-5.025v-0.888
		C131.511,57.832,131.394,55.9,133.907,55.9z"/>
</g>
</svg>
